<svg xmlns="http://www.w3.org/2000/svg" viewBox="0 0 68.96 25.33"><g id="Layer_2" data-name="Layer 2"><g id="Layer_1-2" data-name="Layer 1"><path d="M30.45,4V3.61h.46C32.4,3.61,33,1,33,.06h.13V3.61h2.67V4H33.09V9.28c0,2.67.46,3.44,1.68,3.44A2.71,2.71,0,0,0,36.39,12v.42a3.72,3.72,0,0,1-2.31.84c-1.47,0-2.25-1.26-2.25-4V4Z"/><path d="M44.13,6.49c1.25,2.4.7,5.17-1.24,6.18s-4.52-.13-5.77-2.53S36.43,5,38.36,4,42.88,4.11,44.13,6.49Zm-1.28.41c-1.33-2.08-3.33-3.17-4.62-2.36s-1.15,3.11.17,5.19S41.74,12.92,43,12.1,44.19,9,42.85,6.9Z"/><path d="M48.88,13V13H45.5V13c.25,0,1-.14,1-1.68V5.69c0-1.53-.8-1.68-1-1.68V3.93l2.31-.51v2.1c.57-.94,1.43-2.1,2.77-2.1a1.61,1.61,0,0,1,1.6.86l0,.17L51,5.31l-.12-.1a.86.86,0,0,0-1-.91c-1.3,0-2.12,1.56-2.12,3v4C47.81,12.81,48.63,13,48.88,13Z"/><path d="M56.19,13V13H52.81V13c.25,0,1-.14,1-1.68V5.69c0-1.53-.8-1.68-1-1.68V3.93l2.31-.51v2.1c.57-.94,1.43-2.1,2.77-2.1a1.62,1.62,0,0,1,1.6.86l0,.17-1.2.86-.13-.1a.85.85,0,0,0-.94-.91c-1.3,0-2.12,1.56-2.12,3v4C55.12,12.81,55.94,13,56.19,13Z"/><path d="M62.8,3.61v7.66c0,1.54.8,1.68,1.05,1.68V13H60.47V13c.26,0,1.07-.14,1.07-1.68V5.5c0-1.55-.81-1.8-1.07-1.8V3.61ZM62,0a1.07,1.07,0,0,1,1,1.05A1.06,1.06,0,0,1,62,2.1a1,1,0,0,1-1.05-1A1,1,0,0,1,62,0Z"/><path d="M4.33,24.93V25H0v-.11c.25,0,1.07-.19,1.07-2.18V13.26c0-2-.82-2.2-1.07-2.2V11l3.28-.71v9.65L6,17.61c2.17-1.7,1.58-1.89,1.35-1.89v-.11h2.5v.11c-.24,0-.84.12-2.69,1.55L5.88,18.34,9,23.21c1,1.62,1.74,1.72,2,1.72V25H6.55v-.11c.25,0,.86-.19-.21-1.95L4.09,19.71l-.81.71v2.33C3.28,24.74,4.07,24.93,4.33,24.93Z"/><path d="M18.24,18.31a4.66,4.66,0,0,1-1.59,6.37c-2.12,1.1-4.85,0-6.11-2.36A4.65,4.65,0,0,1,12.12,16,4.66,4.66,0,0,1,18.24,18.31Zm-2.11.91C14.81,17.14,13,15.91,12,16.55s-.67,2.81.67,4.88,3.15,3.31,4.14,2.67S17.47,21.29,16.13,19.22Z"/><path d="M22.55,15.61v7.14c0,2,.8,2.18,1.05,2.18V25H19.28v-.11c.25,0,1.07-.19,1.07-2.18V18c0-2-.82-2.24-1.07-2.24v-.11Zm-1.24-4a1.48,1.48,0,1,1-1.49,1.49A1.49,1.49,0,0,1,21.31,11.58Z"/><path d="M25.75,15.61h6.42v.13L27,24.62H29a3,3,0,0,0,3-2.16h.1v2.87h-.1c0-.25-.45-.29-.84-.29H24.4v-.13L29.61,16H27.74a2.88,2.88,0,0,0-2.92,2.16h-.1V15.32h.1C24.82,15.57,25.37,15.61,25.75,15.61Z"/><path d="M43.61,25H40.36V22.85c-1,1-2.56,2.38-4,2.38s-2.24-1-2.24-2.67V17.9c0-2-.8-2.18-1.05-2.18v-.11h3.25v5.88c0,1.53.55,2.25,1.6,2.25a2.81,2.81,0,0,0,2.39-2.35V17.9c0-2-.82-2.18-1.07-2.18v-.11h3.27v7.14c0,2,.8,2.18,1,2.18Z"/><path d="M44.23,15.72v-.11H47.5v2c.88-1,2.18-2.16,3.44-2.16,1.41,0,2,.91,2.15,2.21.88-1,2.2-2.21,3.48-2.21,1.72,0,2.21,1.33,2.21,3v4.35c0,2,.79,2.18,1,2.18V25H55.5v-.11c.25,0,1.07-.19,1.07-2.18V19.2c0-1.45-.61-2.29-1.55-2.29-1.16,0-1.89,1.43-1.89,2.35v3.49c0,2,.82,2.18,1.07,2.18V25H49.87v-.11c.26,0,1.05-.19,1.05-2.18V19.2c0-1.45-.58-2.29-1.55-2.29-1.16,0-1.87,1.43-1.87,2.35v3.49c0,2,.8,2.18,1,2.18V25H44.23v-.11c.25,0,1.07-.19,1.07-2.18V18C45.3,16,44.48,15.72,44.23,15.72Z"/><path d="M63.84,15.61v7.14c0,2,.8,2.18,1,2.18V25H60.56v-.11c.26,0,1.07-.19,1.07-2.18V18c0-2-.81-2.24-1.07-2.24v-.11Z"/><path d="M67.49,22.13A1.48,1.48,0,1,1,66,23.62,1.49,1.49,0,0,1,67.49,22.13Z"/></g></g></svg>