<svg xmlns="http://www.w3.org/2000/svg" viewBox="0 0 68.96 27.61"><g id="Layer_2" data-name="Layer 2"><g id="Layer_1-2" data-name="Layer 1"><path d="M31.16,5.38V5l.47,0c1.49-.16,2.05-2.85,2.05-3.78h.13V4.72l2.67-.29V4.8l-2.67.3v5.29c0,2.66.46,3.39,1.68,3.26a3.12,3.12,0,0,0,1.62-.94v.42a4.25,4.25,0,0,1-2.31,1.1c-1.47.16-2.25-1-2.25-3.7V5.23Z"/><path d="M44.84,6.49c1.26,2.3.71,5.11-1.23,6.28s-4.52.3-5.77-2a4.75,4.75,0,0,1,1.24-6.29C41,3.3,43.6,4.2,44.84,6.49ZM43.56,7C42.24,5,40.24,4.14,39,5.09s-1.15,3.23.17,5.17,3.34,2.85,4.64,1.92S44.91,9,43.56,7Z"/><path d="M49.6,12.64v.09c-1.13,0-2.25.12-3.38.2v-.09c.25,0,1.05-.22,1.05-1.75V5.51c0-1.54-.8-1.63-1.05-1.61V3.82q1.16-.35,2.31-.66v2.1C49.1,4.29,50,3.09,51.3,3a1.57,1.57,0,0,1,1.6.83l0,.16-1.2.89-.12-.1a.82.82,0,0,0-1-.87c-1.3,0-2.12,1.65-2.12,3.1v4C48.53,12.55,49.35,12.65,49.6,12.64Z"/><path d="M56.91,12.56v.09c-1.13,0-2.25-.05-3.38,0v-.08c.25,0,1-.15,1-1.68V5.26c0-1.53-.8-1.68-1-1.68V3.5L55.84,3V5.1c.57-.93,1.43-2.07,2.77-2a1.7,1.7,0,0,1,1.6,1l0,.17L59,5,58.9,4.9A.89.89,0,0,0,58,4c-1.3-.06-2.12,1.49-2.12,2.94v4C55.84,12.39,56.66,12.55,56.91,12.56Z"/><path d="M63.52,3.71v7.67c0,1.53.8,1.78,1,1.82v.08c-1.12-.16-2.25-.29-3.38-.39v-.08c.26,0,1.07-.05,1.07-1.58V5.46c0-1.56-.81-1.89-1.07-1.91V3.47C62,3.54,62.75,3.62,63.52,3.71ZM62.71,0a1.23,1.23,0,0,1,1,1.17.91.91,0,0,1-1,.93A1.19,1.19,0,0,1,61.66,1,.92.92,0,0,1,62.71,0Z"/><path d="M4.33,26.75v.1c-1.45-.2-2.89-.46-4.33-.78V26c.25.05,1.07,0,1.07-2V14.52c0-2-.82-2.37-1.07-2.43V12c1.09,0,2.18,0,3.28-.09v9.66c.89-.62,1.79-1.26,2.68-1.92,2.17-1.47,1.58-1.73,1.35-1.75v-.1c.83.08,1.66.14,2.5.19v.11c-.24,0-.84.09-2.69,1.34l-1.24.94Q7.43,23,9,25.52c1,1.68,1.74,1.82,2,1.83v.11c-1.47-.07-2.94-.17-4.41-.33V27c.25,0,.86-.09-.21-2-.75-1.17-1.5-2.36-2.25-3.56l-.81.58v2.34C3.28,26.4,4.07,26.71,4.33,26.75Z"/><path d="M18.24,20.74a4.73,4.73,0,0,1-1.59,6.41c-2.12,1.16-4.85,0-6.11-2.43s-.54-5.24,1.58-6.28A4.75,4.75,0,0,1,18.24,20.74Zm-2.11,1C14.81,19.65,13,18.4,12,19s-.67,2.8.67,4.9,3.15,3.34,4.14,2.67S17.47,23.75,16.13,21.7Z"/><path d="M22.55,17.8v7.14c0,2,.8,2.13,1.05,2.11v.1c-1.44.11-2.88.21-4.32.27v-.1c.25,0,1.07-.25,1.07-2.24V20.29c0-2-.82-2.2-1.07-2.19V18C20.37,17.94,21.46,17.88,22.55,17.8Zm-1.24-4a1.38,1.38,0,0,1,1.47,1.39,1.61,1.61,0,0,1-1.47,1.57,1.4,1.4,0,0,1-1.49-1.38A1.62,1.62,0,0,1,21.31,13.85Z"/><path d="M25.75,17.55q3.21-.3,6.42-.65V17c-1.74,3.15-3.47,6.3-5.21,9.42l2.08-.2a3.49,3.49,0,0,0,3-2.49h.1v2.88h-.1c0-.25-.45-.25-.84-.2-2.28.24-4.55.47-6.83.66V27q2.61-4.65,5.21-9.37l-1.87.19a3.24,3.24,0,0,0-2.92,2.43h-.1V17.34h.1C24.82,17.58,25.37,17.58,25.75,17.55Z"/><path d="M43.61,25.14l-3.25.3V23.26c-1,1.15-2.56,2.64-4,2.79s-2.24-.78-2.24-2.42V19c0-2-.8-2.1-1.05-2.07v-.11l3.25-.35v5.88c0,1.53.55,2.18,1.6,2.07a3.23,3.23,0,0,0,2.39-2.6V18.3c0-2-.82-2.1-1.07-2.07v-.11l3.27-.32v7.14c0,2,.8,2.11,1,2.09Z"/><path d="M44.23,15.76v-.1c1.09-.1,2.18-.18,3.27-.25v2c.88-1.05,2.18-2.29,3.44-2.34,1.41,0,2,.86,2.15,2.16.88-1,2.2-2.22,3.48-2.19,1.72.05,2.21,1.41,2.21,3.07v4.34c0,2,.79,2.23,1,2.25v.11c-1.45-.1-2.89-.16-4.33-.17v-.11c.25,0,1.07-.17,1.07-2.16V18.8c0-1.45-.61-2.31-1.55-2.31-1.16,0-1.89,1.43-1.89,2.35v3.49c0,2,.82,2.17,1.07,2.17v.11c-1.44,0-2.88,0-4.33.1v-.1c.26,0,1.05-.23,1.05-2.23V18.83c0-1.44-.58-2.27-1.55-2.22-1.16.06-1.87,1.53-1.87,2.46v3.48c0,2,.8,2.14,1,2.12v.11q-2.16.12-4.32.3V25c.25,0,1.07-.28,1.07-2.27V17.92C45.3,15.93,44.48,15.74,44.23,15.76Z"/><path d="M63.84,15.75v7.14c0,2,.8,2.29,1,2.33v.11c-1.44-.22-2.88-.37-4.33-.49v-.1c.26,0,1.07-.1,1.07-2.09V17.86c0-2-.81-2.32-1.07-2.34v-.11C61.66,15.5,62.75,15.61,63.84,15.75Z"/><path d="M67.49,22.86A1.92,1.92,0,0,1,69,24.65a1.18,1.18,0,0,1-1.47,1.17A1.88,1.88,0,0,1,66,24.08,1.21,1.21,0,0,1,67.49,22.86Z"/></g></g></svg>